{
  "accessors": [
    {
      "bufferView": 2,
      "componentType": 5126,
      "count": 2485,
      "max": [
        1.7742905616760254,
        1.7742908000946045,
        0.002652356866747141
      ],
      "min": [
        -1.7742908000946045,
        -1.7742910385131836,
        -0.7634773254394531
      ],
      "type": "VEC3"
    },
    {
      "bufferView": 2,
      "byteOffset": 29820,
      "componentType": 5126,
      "count": 2485,
      "max": [
        0.9999517202377319,
        0.9999517202377319,
        1.0
      ],
      "min": [
        -0.9999517202377319,
        -0.9999517202377319,
        -1.0
      ],
      "type": "VEC3"
    },
    {
      "bufferView": 1,
      "componentType": 5126,
      "count": 2485,
      "max": [
        1.0000001192092896,
        1.0000001192092896
      ],
      "min": [
        0.0,
        0.5000000596046448
      ],
      "type": "VEC2"
    },
    {
      "bufferView": 0,
      "componentType": 5125,
      "count": 8064,
      "type": "SCALAR"
    },
    {
      "bufferView": 2,
      "byteOffset": 59640,
      "componentType": 5126,
      "count": 2242,
      "max": [
        1.5590580701828003,
        0.8535565137863159,
        3.63704776763916
      ],
      "min": [
        -1.5590463876724243,
        -0.8431268930435181,
        0.5808826684951782
      ],
      "type": "VEC3"
    },
    {
      "bufferView": 2,
      "byteOffset": 86544,
      "componentType": 5126,
      "count": 2242,
      "max": [
        0.9997004270553589,
        0.9996997117996216,
        1.0
      ],
      "min": [
        -0.9997004270553589,
        -0.9979578852653503,
        -1.0
      ],
      "type": "VEC3"
    },
    {
      "bufferView": 1,
      "byteOffset": 19880,
      "componentType": 5126,
      "count": 2242,
      "max": [
        1.000000238418579,
        1.0000001192092896
      ],
      "min": [
        0.0,
        0.0
      ],
      "type": "VEC2"
    },
    {
      "bufferView": 0,
      "byteOffset": 32256,
      "componentType": 5125,
      "count": 10740,
      "type": "SCALAR"
    },
    {
      "bufferView": 2,
      "byteOffset": 113448,
      "componentType": 5126,
      "count": 1118,
      "max": [
        0.34371787309646606,
        -0.6195140480995178,
        3.076188564300537
      ],
      "min": [
        -0.34371790289878845,
        -0.7460967302322388,
        2.676407814025879
      ],
      "type": "VEC3"
    },
    {
      "bufferView": 2,
      "byteOffset": 126864,
      "componentType": 5126,
      "count": 1118,
      "max": [
        0.9970969557762146,
        0.9997384548187256,
        0.983491837978363
      ],
      "min": [
        -0.9970993399620056,
        -0.9997384548187256,
        -0.983491837978363
      ],
      "type": "VEC3"
    },
    {
      "bufferView": 1,
      "byteOffset": 37816,
      "componentType": 5126,
      "count": 1118,
      "max": [
        1.000000238418579,
        1.0
      ],
      "min": [
        0.0,
        0.0
      ],
      "type": "VEC2"
    },
    {
      "bufferView": 0,
      "byteOffset": 75216,
      "componentType": 5125,
      "count": 5760,
      "type": "SCALAR"
    },
    {
      "bufferView": 2,
      "byteOffset": 140280,
      "componentType": 5126,
      "count": 1214,
      "max": [
        1.0847070217132568,
        0.7985138893127441,
        3.238083600997925
      ],
      "min": [
        -0.7011430859565735,
        -0.8167680501937866,
        0.0015627220273017883
      ],
      "type": "VEC3"
    },
    {
      "bufferView": 2,
      "byteOffset": 154848,
      "componentType": 5126,
      "count": 1214,
      "max": [
        0.9946905374526978,
        0.9946905374526978,
        0.9941570162773132
      ],
      "min": [
        -0.9951174259185791,
        -0.9995399713516235,
        -0.9998970031738281
      ],
      "type": "VEC3"
    },
    {
      "bufferView": 1,
      "byteOffset": 46760,
      "componentType": 5126,
      "count": 1214,
      "max": [
        1.000000238418579,
        1.0000001192092896
      ],
      "min": [
        0.0,
        0.0
      ],
      "type": "VEC2"
    },
    {
      "bufferView": 0,
      "byteOffset": 98256,
      "componentType": 5125,
      "count": 5544,
      "type": "SCALAR"
    },
    {
      "bufferView": 2,
      "byteOffset": 169416,
      "componentType": 5126,
      "count": 314,
      "max": [
        0.5609153509140015,
        0.3217523992061615,
        1.5334008932113647
      ],
      "min": [
        -1.3969224691390991,
        -0.3607884645462036,
        0.26067841053009033
      ],
      "type": "VEC3"
    },
    {
      "bufferView": 2,
      "byteOffset": 173184,
      "componentType": 5126,
      "count": 314,
      "max": [
        0.7232514023780823,
        0.8343979120254517,
        0.9825469851493835
      ],
      "min": [
        -0.9916916489601135,
        -0.8732550740242004,
        -0.6907927989959717
      ],
      "type": "VEC3"
    },
    {
      "bufferView": 1,
      "byteOffset": 56472,
      "componentType": 5126,
      "count": 314,
      "max": [
        1.0,
        1.0
      ],
      "min": [
        0.0,
        0.01000000536441803
      ],
      "type": "VEC2"
    },
    {
      "bufferView": 0,
      "byteOffset": 120432,
      "componentType": 5125,
      "count": 1002,
      "type": "SCALAR"
    },
    {
      "bufferView": 2,
      "byteOffset": 176952,
      "componentType": 5126,
      "count": 196,
      "max": [
        1.0910776853561401,
        0.8418633937835693,
        4.081085681915283
      ],
      "min": [
        -1.0910661220550537,
        0.13516020774841309,
        1.9675099849700928
      ],
      "type": "VEC3"
    },
    {
      "bufferView": 2,
      "byteOffset": 179304,
      "componentType": 5126,
      "count": 196,
      "max": [
        0.9943491816520691,
        0.7286961078643799,
        0.989203155040741
      ],
      "min": [
        -0.9943491816520691,
        -0.9999600648880005,
        -0.9994323253631592
      ],
      "type": "VEC3"
    },
    {
      "bufferView": 1,
      "byteOffset": 58984,
      "componentType": 5126,
      "count": 196,
      "max": [
        1.0,
        0.5534321665763855
      ],
      "min": [
        0.0,
        0.010027540847659111
      ],
      "type": "VEC2"
    },
    {
      "bufferView": 0,
      "byteOffset": 124440,
      "componentType": 5125,
      "count": 858,
      "type": "SCALAR"
    },
    {
      "bufferView": 2,
      "byteOffset": 181656,
      "componentType": 5126,
      "count": 3348,
      "max": [
        0.9607991576194763,
        1.795957088470459,
        3.8759257793426514
      ],
      "min": [
        -0.9607877135276794,
        -0.5824078321456909,
        0.5232577323913574
      ],
      "type": "VEC3"
    },
    {
      "bufferView": 2,
      "byteOffset": 221832,
      "componentType": 5126,
      "count": 3348,
      "max": [
        0.9991797208786011,
        0.999640941619873,
        1.0
      ],
      "min": [
        -0.9991797208786011,
        -0.9979695677757263,
        -1.0
      ],
      "type": "VEC3"
    },
    {
      "bufferView": 1,
      "byteOffset": 60552,
      "componentType": 5126,
      "count": 3348,
      "max": [
        1.0000005960464478,
        1.0000001192092896
      ],
      "min": [
        0.0,
        0.01000000536441803
      ],
      "type": "VEC2"
    },
    {
      "bufferView": 0,
      "byteOffset": 127872,
      "componentType": 5125,
      "count": 13566,
      "type": "SCALAR"
    },
    {
      "bufferView": 2,
      "byteOffset": 262008,
      "componentType": 5126,
      "count": 2760,
      "max": [
        1.1596094369888306,
        1.0370819568634033,
        1.7523876428604126
      ],
      "min": [
        -1.506072998046875,
        -2.5135538578033447,
        -0.15041470527648926
      ],
      "type": "VEC3"
    },
    {
      "bufferView": 2,
      "byteOffset": 295128,
      "componentType": 5126,
      "count": 2760,
      "max": [
        0.9967422485351563,
        0.9988756775856018,
        0.9987221360206604
      ],
      "min": [
        -0.9997314214706421,
        -0.9990324378013611,
        -0.9888107776641846
      ],
      "type": "VEC3"
    },
    {
      "bufferView": 1,
      "byteOffset": 87336,
      "componentType": 5126,
      "count": 2760,
      "max": [
        1.000000238418579,
        1.0
      ],
      "min": [
        0.0,
        -0.2596256136894226
      ],
      "type": "VEC2"
    },
    {
      "bufferView": 0,
      "byteOffset": 182136,
      "componentType": 5125,
      "count": 13584,
      "type": "SCALAR"
    },
    {
      "bufferView": 2,
      "byteOffset": 328248,
      "componentType": 5126,
      "count": 497,
      "max": [
        0.9891961216926575,
        0.9241636991500854,
        1.4404828548431396
      ],
      "min": [
        -1.408614993095398,
        0.0012421905994415283,
        0.7430845499038696
      ],
      "type": "VEC3"
    },
    {
      "bufferView": 2,
      "byteOffset": 334212,
      "componentType": 5126,
      "count": 497,
      "max": [
        0.9633100032806396,
        0.9960392713546753,
        0.9963541626930237
      ],
      "min": [
        -0.9991458654403687,
        -0.7596098780632019,
        -0.889765739440918
      ],
      "type": "VEC3"
    },
    {
      "bufferView": 1,
      "byteOffset": 109416,
      "componentType": 5126,
      "count": 497,
      "max": [
        1.000000238418579,
        0.5000000596046448
      ],
      "min": [
        0.0,
        0.0
      ],
      "type": "VEC2"
    },
    {
      "bufferView": 0,
      "byteOffset": 236472,
      "componentType": 5125,
      "count": 2436,
      "type": "SCALAR"
    },
    {
      "bufferView": 2,
      "byteOffset": 340176,
      "componentType": 5126,
      "count": 4408,
      "max": [
        1.0719294548034668,
        0.6618680953979492,
        4.156888484954834
      ],
      "min": [
        -1.338561773300171,
        -0.9558662176132202,
        0.7540258169174194
      ],
      "type": "VEC3"
    },
    {
      "bufferView": 2,
      "byteOffset": 393072,
      "componentType": 5126,
      "count": 4408,
      "max": [
        0.9998668432235718,
        0.9990891218185425,
        0.9841600656509399
      ],
      "min": [
        -0.9998668432235718,
        -0.9970075488090515,
        -0.9861834645271301
      ],
      "type": "VEC3"
    },
    {
      "bufferView": 1,
      "byteOffset": 113392,
      "componentType": 5126,
      "count": 4408,
      "max": [
        1.000000238418579,
        1.0
      ],
      "min": [
        0.0,
        0.0
      ],
      "type": "VEC2"
    },
    {
      "bufferView": 0,
      "byteOffset": 246216,
      "componentType": 5125,
      "count": 24816,
      "type": "SCALAR"
    },
    {
      "bufferView": 2,
      "byteOffset": 445968,
      "componentType": 5126,
      "count": 330,
      "max": [
        0.7104479074478149,
        0.36620429158210754,
        0.3478406071662903
      ],
      "min": [
        -0.7104479074478149,
        -0.6977970004081726,
        -0.05163351073861122
      ],
      "type": "VEC3"
    },
    {
      "bufferView": 2,
      "byteOffset": 449928,
      "componentType": 5126,
      "count": 330,
      "max": [
        0.7303579449653625,
        0.7303579449653625,
        1.0
      ],
      "min": [
        -0.7303579449653625,
        -0.7303579449653625,
        -1.0
      ],
      "type": "VEC3"
    },
    {
      "bufferView": 1,
      "byteOffset": 148656,
      "componentType": 5126,
      "count": 330,
      "max": [
        0.875,
        0.6486742496490479
      ],
      "min": [
        0.0,
        0.0
      ],
      "type": "VEC2"
    },
    {
      "bufferView": 0,
      "byteOffset": 345480,
      "componentType": 5125,
      "count": 1572,
      "type": "SCALAR"
    },
    {
      "bufferView": 2,
      "byteOffset": 453888,
      "componentType": 5126,
      "count": 408,
      "max": [
        -0.8110899925231934,
        0.8471687436103821,
        1.5837538242340088
      ],
      "min": [
        -1.4345227479934692,
        -0.4531271457672119,
        0.6081624031066895
      ],
      "type": "VEC3"
    },
    {
      "bufferView": 2,
      "byteOffset": 458784,
      "componentType": 5126,
      "count": 408,
      "max": [
        -0.6533234119415283,
        0.3741387724876404,
        0.7382706999778748
      ],
      "min": [
        -0.959048867225647,
        -0.1671181321144104,
        0.28038832545280457
      ],
      "type": "VEC3"
    },
    {
      "bufferView": 1,
      "byteOffset": 151296,
      "componentType": 5126,
      "count": 408,
      "max": [
        0.9018338918685913,
        0.6544212698936462
      ],
      "min": [
        0.0,
        0.0
      ],
      "type": "VEC2"
    },
    {
      "bufferView": 0,
      "byteOffset": 351768,
      "componentType": 5125,
      "count": 540,
      "type": "SCALAR"
    },
    {
      "bufferView": 2,
      "byteOffset": 463680,
      "componentType": 5126,
      "count": 1208,
      "max": [
        1.0003013610839844,
        0.38376426696777344,
        1.7360700368881226
      ],
      "min": [
        -1.052299976348877,
        -0.1772560179233551,
        0.934407651424408
      ],
      "type": "VEC3"
    },
    {
      "bufferView": 2,
      "byteOffset": 478176,
      "componentType": 5126,
      "count": 1208,
      "max": [
        0.9969896674156189,
        0.9964900016784668,
        0.9983280301094055
      ],
      "min": [
        -0.9973780512809753,
        -0.9993195533752441,
        -0.9995557069778442
      ],
      "type": "VEC3"
    },
    {
      "bufferView": 1,
      "byteOffset": 154560,
      "componentType": 5126,
      "count": 1208,
      "max": [
        1.000000238418579,
        1.0
      ],
      "min": [
        0.0,
        0.4375
      ],
      "type": "VEC2"
    },
    {
      "bufferView": 0,
      "byteOffset": 353928,
      "componentType": 5125,
      "count": 5952,
      "type": "SCALAR"
    }
  ],
  "asset": {
    "extras": {
      "author": "Stewart Budd (https://sketchfab.com/StewartB)",
      "license": "CC-BY-4.0 (http://creativecommons.org/licenses/by/4.0/)",
      "source": "https://sketchfab.com/3d-models/link-cartoon-93f0d5a60eb74f2f857a3257cf578687",
      "title": "Link Cartoon"
    },
    "generator": "Sketchfab-12.68.0",
    "version": "2.0"
  },
  "bufferViews": [
    {
      "buffer": 0,
      "byteLength": 377736,
      "name": "floatBufferViews",
      "target": 34963
    },
    {
      "buffer": 0,
      "byteLength": 164224,
      "byteOffset": 377736,
      "byteStride": 8,
      "name": "floatBufferViews",
      "target": 34962
    },
    {
      "buffer": 0,
      "byteLength": 492672,
      "byteOffset": 541960,
      "byteStride": 12,
      "name": "floatBufferViews",
      "target": 34962
    }
  ],
  "buffers": [
    {
      "byteLength": 1034632,
      "uri": "scene.bin"
    }
  ],
  "materials": [
    {
      "doubleSided": true,
      "name": "Base",
      "pbrMetallicRoughness": {
        "baseColorFactor": [
          0.456411,
          0.47932,
          0.238398,
          1.0
        ],
        "metallicFactor": 0.0,
        "roughnessFactor": 0.5
      }
    },
    {
      "doubleSided": true,
      "name": "Skin",
      "pbrMetallicRoughness": {
        "baseColorFactor": [
          0.9822509999999999,
          0.4677839999999998,
          0.24228099999999994,
          1.0
        ],
        "metallicFactor": 0.0,
        "roughnessFactor": 0.5
      }
    },
    {
      "doubleSided": true,
      "name": "Black",
      "pbrMetallicRoughness": {
        "baseColorFactor": [
          0.0,
          0.0,
          0.0,
          1.0
        ],
        "metallicFactor": 0.0,
        "roughnessFactor": 0.5
      }
    },
    {
      "doubleSided": true,
      "name": "Brown",
      "pbrMetallicRoughness": {
        "baseColorFactor": [
          0.15592599999999987,
          0.04817180000000006,
          0.02842600000000002,
          1.0
        ],
        "metallicFactor": 0.0,
        "roughnessFactor": 0.4
      }
    },
    {
      "doubleSided": true,
      "name": "Leggings",
      "pbrMetallicRoughness": {
        "baseColorFactor": [
          0.783538,
          0.783538,
          0.783538,
          1.0
        ],
        "metallicFactor": 0.0,
        "roughnessFactor": 0.4
      }
    },
    {
      "doubleSided": true,
      "name": "Green_Light",
      "pbrMetallicRoughness": {
        "baseColorFactor": [
          0.033104800000000004,
          0.9734449999999997,
          0.0886556,
          1.0
        ],
        "metallicFactor": 0.0,
        "roughnessFactor": 0.5
      }
    },
    {
      "doubleSided": true,
      "name": "Green",
      "pbrMetallicRoughness": {
        "baseColorFactor": [
          0.043735,
          0.208637,
          0.0666259,
          1.0
        ],
        "metallicFactor": 0.0,
        "roughnessFactor": 0.5
      }
    },
    {
      "doubleSided": true,
      "name": "Silver",
      "pbrMetallicRoughness": {
        "baseColorFactor": [
          0.564712,
          0.571125,
          0.603827,
          1.0
        ],
        "metallicFactor": 0.5,
        "roughnessFactor": 0.4
      }
    },
    {
      "doubleSided": true,
      "name": "Ruby",
      "pbrMetallicRoughness": {
        "baseColorFactor": [
          0.5149180000000001,
          0.0451862,
          0.03189600000000002,
          1.0
        ],
        "metallicFactor": 0.5,
        "roughnessFactor": 0.25
      }
    },
    {
      "doubleSided": true,
      "name": "Hair",
      "pbrMetallicRoughness": {
        "baseColorFactor": [
          1.0,
          0.462217,
          0.0,
          1.0
        ],
        "metallicFactor": 0.0,
        "roughnessFactor": 0.4
      }
    },
    {
      "doubleSided": true,
      "name": "BrownDark",
      "pbrMetallicRoughness": {
        "baseColorFactor": [
          0.0732245,
          0.0124478,
          0.00992246,
          1.0
        ],
        "metallicFactor": 0.0,
        "roughnessFactor": 0.5
      }
    },
    {
      "doubleSided": true,
      "name": "Blue",
      "pbrMetallicRoughness": {
        "baseColorFactor": [
          0.0043914399999999965,
          0.22322799999999993,
          0.8713669999999999,
          1.0
        ],
        "metallicFactor": 0.0
      }
    },
    {
      "doubleSided": true,
      "name": "Shirt",
      "pbrMetallicRoughness": {
        "baseColorFactor": [
          0.581463,
          0.1159799999999999,
          0.014961100000000007,
          1.0
        ],
        "metallicFactor": 0.0,
        "roughnessFactor": 0.5
      }
    }
  ],
  "meshes": [
    {
      "name": "Base_Base_0",
      "primitives": [
        {
          "attributes": {
            "NORMAL": 1,
            "POSITION": 0,
            "TEXCOORD_0": 2
          },
          "indices": 3,
          "material": 0,
          "mode": 4
        }
      ]
    },
    {
      "name": "Base_Skin_0",
      "primitives": [
        {
          "attributes": {
            "NORMAL": 5,
            "POSITION": 4,
            "TEXCOORD_0": 6
          },
          "indices": 7,
          "material": 1,
          "mode": 4
        }
      ]
    },
    {
      "name": "Base_Black_0",
      "primitives": [
        {
          "attributes": {
            "NORMAL": 9,
            "POSITION": 8,
            "TEXCOORD_0": 10
          },
          "indices": 11,
          "material": 2,
          "mode": 4
        }
      ]
    },
    {
      "name": "Base_Brown_0",
      "primitives": [
        {
          "attributes": {
            "NORMAL": 13,
            "POSITION": 12,
            "TEXCOORD_0": 14
          },
          "indices": 15,
          "material": 3,
          "mode": 4
        }
      ]
    },
    {
      "name": "Base_Leggings_0",
      "primitives": [
        {
          "attributes": {
            "NORMAL": 17,
            "POSITION": 16,
            "TEXCOORD_0": 18
          },
          "indices": 19,
          "material": 4,
          "mode": 4
        }
      ]
    },
    {
      "name": "Base_Green Light_0",
      "primitives": [
        {
          "attributes": {
            "NORMAL": 21,
            "POSITION": 20,
            "TEXCOORD_0": 22
          },
          "indices": 23,
          "material": 5,
          "mode": 4
        }
      ]
    },
    {
      "name": "Base_Green_0",
      "primitives": [
        {
          "attributes": {
            "NORMAL": 25,
            "POSITION": 24,
            "TEXCOORD_0": 26
          },
          "indices": 27,
          "material": 6,
          "mode": 4
        }
      ]
    },
    {
      "name": "Base_Silver_0",
      "primitives": [
        {
          "attributes": {
            "NORMAL": 29,
            "POSITION": 28,
            "TEXCOORD_0": 30
          },
          "indices": 31,
          "material": 7,
          "mode": 4
        }
      ]
    },
    {
      "name": "Base_Ruby_0",
      "primitives": [
        {
          "attributes": {
            "NORMAL": 33,
            "POSITION": 32,
            "TEXCOORD_0": 34
          },
          "indices": 35,
          "material": 8,
          "mode": 4
        }
      ]
    },
    {
      "name": "Base_Hair_0",
      "primitives": [
        {
          "attributes": {
            "NORMAL": 37,
            "POSITION": 36,
            "TEXCOORD_0": 38
          },
          "indices": 39,
          "material": 9,
          "mode": 4
        }
      ]
    },
    {
      "name": "Base_BrownDark_0",
      "primitives": [
        {
          "attributes": {
            "NORMAL": 41,
            "POSITION": 40,
            "TEXCOORD_0": 42
          },
          "indices": 43,
          "material": 10,
          "mode": 4
        }
      ]
    },
    {
      "name": "Base_Blue_0",
      "primitives": [
        {
          "attributes": {
            "NORMAL": 45,
            "POSITION": 44,
            "TEXCOORD_0": 46
          },
          "indices": 47,
          "material": 11,
          "mode": 4
        }
      ]
    },
    {
      "name": "Base_Shirt_0",
      "primitives": [
        {
          "attributes": {
            "NORMAL": 49,
            "POSITION": 48,
            "TEXCOORD_0": 50
          },
          "indices": 51,
          "material": 12,
          "mode": 4
        }
      ]
    }
  ],
  "nodes": [
    {
      "children": [
        1
      ],
      "matrix": [
        1.0,
        0.0,
        0.0,
        0.0,
        0.0,
        2.220446049250313e-16,
        -1.0,
        0.0,
        0.0,
        1.0,
        2.220446049250313e-16,
        0.0,
        0.0,
        0.0,
        0.0,
        1.0
      ],
      "name": "Sketchfab_model"
    },
    {
      "children": [
        2
      ],
      "matrix": [
        1.0,
        0.0,
        0.0,
        0.0,
        0.0,
        0.0,
        1.0,
        0.0,
        0.0,
        -1.0,
        0.0,
        0.0,
        0.0,
        0.0,
        0.0,
        1.0
      ],
      "name": "cc866b0db147489c9dba25c17df19cc2.fbx"
    },
    {
      "children": [
        3
      ],
      "name": "RootNode"
    },
    {
      "children": [
        4,
        5,
        6,
        7,
        8,
        9,
        10,
        11,
        12,
        13,
        14,
        15,
        16
      ],
      "matrix": [
        100.0,
        0.0,
        0.0,
        0.0,
        0.0,
        -1.629206793918314e-05,
        -99.99999999999868,
        0.0,
        0.0,
        99.99999999999868,
        -1.629206793918314e-05,
        0.0,
        0.0,
        5.163350582122803,
        0.0,
        1.0
      ],
      "name": "Base"
    },
    {
      "mesh": 0,
      "name": "Base_Base_0"
    },
    {
      "mesh": 1,
      "name": "Base_Skin_0"
    },
    {
      "mesh": 2,
      "name": "Base_Black_0"
    },
    {
      "mesh": 3,
      "name": "Base_Brown_0"
    },
    {
      "mesh": 4,
      "name": "Base_Leggings_0"
    },
    {
      "mesh": 5,
      "name": "Base_Green Light_0"
    },
    {
      "mesh": 6,
      "name": "Base_Green_0"
    },
    {
      "mesh": 7,
      "name": "Base_Silver_0"
    },
    {
      "mesh": 8,
      "name": "Base_Ruby_0"
    },
    {
      "mesh": 9,
      "name": "Base_Hair_0"
    },
    {
      "mesh": 10,
      "name": "Base_BrownDark_0"
    },
    {
      "mesh": 11,
      "name": "Base_Blue_0"
    },
    {
      "mesh": 12,
      "name": "Base_Shirt_0"
    }
  ],
  "scene": 0,
  "scenes": [
    {
      "name": "Sketchfab_Scene",
      "nodes": [
        0
      ]
    }
  ]
}
